# ProBuilder 5.2.4
# https://unity3d.com/unity/features/worldbuilding/probuilder
# 4/13/2026 10:11:33 PM

mtllib ./LevelLayout.mtl
o LevelLayout

g Cube (1)
v -20 0 15
v -20 0 35
v -20 0.5 15
v -20 0.5 35
v -40 0 35
v -40 0.5 35
v -40 0 15
v -40 0.5 15

vt 0 0
vt -20 0
vt 0 0.5
vt -20 0.5
vt 20 0
vt 20 0.5
vt 0 20
vt 20 20
vt -20 20

vn 1 0 -1.192093E-07
vn 1.192093E-07 0 1
vn -1 0 1.192093E-07
vn -1.192093E-07 0 -1
vn 0 1 0
vn 0 -1 0

usemtl Free_Wood_3
f 3/3/1 4/4/1 2/2/1 1/1/1
f 4/6/2 6/3/2 5/1/2 2/5/2
f 6/6/3 8/3/3 7/1/3 5/5/3
f 8/3/4 3/4/4 1/2/4 7/1/4
f 8/1/5 6/5/5 4/8/5 3/7/5
f 1/7/6 2/9/6 5/2/6 7/1/6

g Cube (2)
v -20 0.5 19
v -40 0.5 19
v -20 4.5 19
v -40 4.5 19
v -40 0.5 18
v -40 4.5 18
v -20 0.5 18
v -20 4.5 18

vt 20 0
vt 0 0
vt 20 4
vt 0 4
vt -1 0
vt -1 4
vt -20 0
vt -20 4
vt 1 0
vt 1 4
vt -20 -1
vt 0 -1
vt 20 -1

vn 0 0 1
vn -1 0 0
vn 0 0 -1
vn 1 0 0
vn 0 1 0
vn 0 -1 0

usemtl ProBuilderDefault
f 11/12/7 12/13/7 10/11/7 9/10/7
f 12/13/8 14/15/8 13/14/8 10/11/8
f 14/13/9 16/17/9 15/16/9 13/11/9
f 16/19/10 11/13/10 9/11/10 15/18/10
f 16/20/11 14/21/11 12/11/11 11/16/11
f 9/10/12 10/11/12 13/21/12 15/22/12

g Cube (3)
v -37 0.5 35
v -38 0.5 35
v -37 4.5 35
v -38 4.5 35
v -38 0.5 19
v -38 4.5 19
v -37 0.5 19
v -37 4.5 19

vt 1 0
vt 0 0
vt 1 4
vt 0 4
vt 16 0
vt 16 4
vt -1 0
vt -1 4
vt -16 0
vt -16 4
vt -1 16
vt 0 16
vt 1 16

vn 0 0 1
vn -1 0 0
vn 0 0 -1
vn 1 0 0
vn 0 1 0
vn 0 -1 0

usemtl ProBuilderDefault
f 19/25/13 20/26/13 18/24/13 17/23/13
f 20/28/14 22/26/14 21/24/14 18/27/14
f 22/26/15 24/30/15 23/29/15 21/24/15
f 24/26/16 19/32/16 17/31/16 23/24/16
f 24/29/17 22/24/17 20/34/17 19/33/17
f 17/35/18 18/34/18 21/24/18 23/23/18

g Cube (4)
v -22 0.5 34
v -23 0.5 34
v -22 4.5 34
v -23 4.5 34
v -23 0.5 19
v -23 4.5 19
v -22 0.5 19
v -22 4.5 19

vt 1 0
vt 0 0
vt 1 4
vt 0 4
vt 15 0
vt 15 4
vt -1 0
vt -1 4
vt -15 0
vt -15 4
vt -1 15
vt 0 15
vt 1 15

vn 0 0 1
vn -1 0 0
vn 0 0 -1
vn 1 0 0
vn 0 1 0
vn 0 -1 0

usemtl ProBuilderDefault
f 27/38/19 28/39/19 26/37/19 25/36/19
f 28/41/20 30/39/20 29/37/20 26/40/20
f 30/39/21 32/43/21 31/42/21 29/37/21
f 32/39/22 27/45/22 25/44/22 31/37/22
f 32/42/23 30/37/23 28/47/23 27/46/23
f 25/48/24 26/47/24 29/37/24 31/36/24

g Cube (1)
v -20 0.5 35
v -29 0.5 35
v -20 4.5 35
v -29 4.5 35
v -29 0.5 34
v -29 4.5 34
v -20 0.5 34
v -20 4.5 34

vt 9 0
vt 0 0
vt 9 4
vt 0 4
vt -1 0
vt -1 4
vt -9 0
vt -9 4
vt 1 0
vt 1 4
vt -9 -1
vt 0 -1
vt 9 -1

vn 0 0 1
vn -1 0 0
vn 0 0 -1
vn 1 0 0
vn 0 1 0
vn 0 -1 0

usemtl ProBuilderDefault
f 35/51/25 36/52/25 34/50/25 33/49/25
f 36/52/26 38/54/26 37/53/26 34/50/26
f 38/52/27 40/56/27 39/55/27 37/50/27
f 40/58/28 35/52/28 33/50/28 39/57/28
f 40/59/29 38/60/29 36/50/29 35/55/29
f 33/49/30 34/50/30 37/60/30 39/61/30

g Cube (2)
v -31 0.5 35
v -39 0.5 35
v -31 4.5 35
v -39 4.5 35
v -39 0.5 34
v -39 4.5 34
v -31 0.5 34
v -31 4.5 34

vt 8 0
vt 0 0
vt 8 4
vt 0 4
vt -1 0
vt -1 4
vt -8 0
vt -8 4
vt 1 0
vt 1 4
vt -8 -1
vt 0 -1
vt 8 -1

vn 0 0 1
vn -1 0 0
vn 0 0 -1
vn 1 0 0
vn 0 1 0
vn 0 -1 0

usemtl ProBuilderDefault
f 43/64/31 44/65/31 42/63/31 41/62/31
f 44/65/32 46/67/32 45/66/32 42/63/32
f 46/65/33 48/69/33 47/68/33 45/63/33
f 48/71/34 43/65/34 41/63/34 47/70/34
f 48/72/35 46/73/35 44/63/35 43/68/35
f 41/62/36 42/63/36 45/73/36 47/74/36

g Cube (3)
v -15 4.5 35
v -39 4.5 35
v -15 5 35
v -39 5 35
v -39 4.5 18
v -39 5 18
v -15 4.5 18
v -15 5 18

vt 25 0
vt 1 0
vt 25 0.5
vt 1 0.5
vt 17 0
vt 0 0
vt 17 0.5
vt 0 0.5
vt -1 0
vt -25 0
vt -1 0.5
vt -25 0.5
vt -17 0
vt -17 0.5
vt -25 17
vt -1 17
vt 25 17
vt 1 17

vn 0 0 1
vn -1 0 0
vn 0 0 -1
vn 1 0 0
vn 0 1 0
vn 0 -1 0

usemtl ProBuilderDefault
f 51/77/37 52/78/37 50/76/37 49/75/37
f 52/81/38 54/82/38 53/80/38 50/79/38
f 54/85/39 56/86/39 55/84/39 53/83/39
f 56/82/40 51/88/40 49/87/40 55/80/40
f 56/84/41 54/83/41 52/90/41 51/89/41
f 49/91/42 50/92/42 53/76/42 55/75/42

g Cube (4)
v -29 4.5 35
v -29 3.5 35
v -31 4.5 35
v -31 3.5 35
v -29 3.5 34
v -31 3.5 34
v -29 4.5 34
v -31 4.5 34

vt 1 -1.192093E-07
vt 1.788139E-07 -1.192093E-07
vt 1 2
vt 1.788139E-07 2
vt -1 -1.192093E-07
vt -1 2
vt -1 1
vt -1.788139E-07 1
vt 1 1

vn 0 0 1
vn 1.192093E-07 -1 0
vn 0 0 -1
vn -1.192093E-07 1 0
vn -1 -1.192093E-07 0
vn 1 1.192093E-07 0

usemtl ProBuilderDefault
f 59/95/43 60/96/43 58/94/43 57/93/43
f 60/95/44 62/96/44 61/94/44 58/93/44
f 62/96/45 64/98/45 63/97/45 61/94/45
f 64/96/46 59/98/46 57/97/46 63/94/46
f 64/97/47 62/94/47 60/100/47 59/99/47
f 57/101/48 58/100/48 61/94/48 63/93/48

g Cube (5)
v -15 5 35
v -39 5 35
v -15 10 35
v -39 10 35
v -39 5 34
v -39 10 34
v -15 5 34
v -15 10 34

vt 25 0
vt 1 0
vt 25 5
vt 1 5
vt 0 0
vt 0 5
vt -1 0
vt -25 0
vt -1 5
vt -25 5
vt -25 1
vt -1 1
vt 25 1
vt 1 1

vn 0 0 1
vn -1 0 0
vn 0 0 -1
vn 1 0 0
vn 0 1 0
vn 0 -1 0

usemtl ProBuilderDefault
f 67/104/49 68/105/49 66/103/49 65/102/49
f 68/105/50 70/107/50 69/106/50 66/103/50
f 70/110/51 72/111/51 71/109/51 69/108/51
f 72/107/52 67/110/52 65/108/52 71/106/52
f 72/109/53 70/108/53 68/113/53 67/112/53
f 65/114/54 66/115/54 69/103/54 71/102/54

g Cube (10)
v -33 -1.192092E-07 35
v -33 0.4999992 35
v -33 -5.364418E-07 38.5
v -33 0.4999987 38.5
v -15 0.4999989 35
v -15 0.4999981 38.5
v -15 -3.576278E-07 35
v -15 -1.192093E-06 38.5

vt 0.5000009 -4.768372E-07
vt 1.624227E-06 -4.768372E-07
vt 0.5000009 3.5
vt 1.624227E-06 3.5
vt 13 -4.768372E-07
vt -5 -9.536743E-07
vt 13 3.5
vt -5 3.499999
vt -0.5000001 -8.940697E-07
vt -0.5000005 3.499999
vt 5 -8.34465E-07
vt -13 -4.172325E-07
vt 5 3.499999
vt -13 3.5
vt -0.5000009 13
vt -1.624227E-06 13
vt -0.5000005 -5
vt -1.192093E-06 -5
vt 0.5000001 -5
vt 0.5000009 13

vn -1 5.960464E-08 0
vn 7.202227E-08 1 5.960464E-08
vn 1 -5.960464E-08 0
vn -7.285013E-08 -1 -1.788139E-07
vn 9.934108E-08 -1.192093E-07 1
vn -8.278424E-08 -5.546181E-14 -1

usemtl ProBuilderDefault
f 75/118/55 76/119/55 74/117/55 73/116/55
f 76/122/56 78/123/56 77/121/56 74/120/56
f 78/119/57 80/125/57 79/124/57 77/117/57
f 80/128/58 75/129/58 73/127/58 79/126/58
f 80/132/59 78/133/59 76/131/59 75/130/59
f 73/135/60 74/131/60 77/133/60 79/134/60

g Cube (6)
v -39 0.5 35
v -39 4.5 35
v -39 0.5 38.5
v -39 4.5 38.5
v -32 4.5 35
v -32 4.5 38.5
v -32 0.5 35
v -32 0.5 38.5

vt 4 0
vt 0 0
vt 4 3.5
vt 0 3.5
vt 6 0
vt -1 0
vt 6 3.5
vt -1 3.5
vt -4 0
vt -4 3.5
vt 1 0
vt -6 0
vt 1 3.5
vt -6 3.5
vt -4 6
vt 0 6
vt -4 -1
vt 0 -1
vt 4 -1
vt 4 6

vn -1 0 0
vn 0 1 0
vn 1 0 0
vn 0 -1 0
vn 0 0 1
vn 0 0 -1

usemtl ProBuilderDefault
f 83/138/61 84/139/61 82/137/61 81/136/61
f 84/142/62 86/143/62 85/141/62 82/140/62
f 86/139/63 88/145/63 87/144/63 85/137/63
f 88/148/64 83/149/64 81/147/64 87/146/64
f 88/152/65 86/153/65 84/151/65 83/150/65
f 81/155/66 82/151/66 85/153/66 87/154/66

g Cube (7)
v -39 0.5 38
v -39 4.5 38
v -39 0.5 40
v -39 4.5 40
v -15 4.5 38
v -15 4.5 40
v -15 0.5 38
v -15 0.5 40

vt 4 -0.5
vt 0 -0.5
vt 4 1.5
vt 0 1.5
vt -24 -0.5
vt -24 1.5
vt -4 -0.5
vt -4 1.5
vt 24 -0.5
vt 24 1.5
vt -4 0
vt 0 0
vt -4 -24
vt 0 -24
vt 4 -24
vt 4 0

vn -1 0 0
vn 0 1 0
vn 1 0 0
vn 0 -1 0
vn 0 0 1
vn 0 0 -1

usemtl ProBuilderDefault
f 91/158/67 92/159/67 90/157/67 89/156/67
f 92/159/68 94/161/68 93/160/68 90/157/68
f 94/159/69 96/163/69 95/162/69 93/157/69
f 96/165/70 91/159/70 89/157/70 95/164/70
f 96/168/71 94/169/71 92/167/71 91/166/71
f 89/171/72 90/167/72 93/169/72 95/170/72

g Cube (8)
v -15 0.4999993 38.5
v -20 0.4999999 38.5
v -15 4.5 38.5
v -20 4.5 38.5
v -20 0.5 35
v -20 4.5 35
v -15 0.4999996 35
v -15 4.5 35

vt 6 0
vt 0.9999999 1.60838E-07
vt 6 4
vt 0.9999996 4
vt 3.5 8.633222E-08
vt -2.980224E-08 -3.074748E-09
vt 3.5 4
vt -2.682208E-07 4
vt -0.9999999 7.143106E-08
vt -6 7.105368E-16
vt -0.9999996 4
vt -6 4
vt -3.5 0
vt -3.5 4
vt -6 3.5
vt -0.9999996 3.5
vt 6 3.5
vt 0.9999999 3.5

vn -4.405647E-15 -5.960464E-08 1
vn -1 -5.913279E-10 -2.537653E-15
vn -1.788141E-08 1.321695E-15 -1
vn 1 -7.391449E-08 0
vn 7.391449E-08 1 5.960464E-08
vn -8.82007E-08 -1 -5.960464E-08

usemtl ProBuilderDefault
f 99/174/73 100/175/73 98/173/73 97/172/73
f 100/178/74 102/179/74 101/177/74 98/176/74
f 102/182/75 104/183/75 103/181/75 101/180/75
f 104/179/76 99/185/76 97/184/76 103/177/76
f 104/181/77 102/180/77 100/187/77 99/186/77
f 97/188/78 98/189/78 101/173/78 103/172/78

g Stairs
v -29 0.499999 35
v -29 0.4999989 38
v -29 0.7666657 35
v -29 0.7666655 38
v -28.4 0.7666656 35
v -28.4 0.7666655 38
v -28.4 1.033332 35
v -28.4 1.033332 38
v -27.8 1.033332 35
v -27.8 1.033332 38
v -27.8 1.299999 35
v -27.8 1.299999 38
v -27.2 1.299999 35
v -27.2 1.299999 38
v -27.2 1.566666 35
v -27.2 1.566665 38
v -26.6 1.566666 35
v -26.6 1.566665 38
v -26.6 1.833332 35
v -26.6 1.833332 38
v -26 1.833332 35
v -26 1.833332 38
v -26 2.099999 35
v -26 2.099999 38
v -25.4 2.099999 35
v -25.4 2.099999 38
v -25.4 2.366665 35
v -25.4 2.366665 38
v -24.8 2.366665 35
v -24.8 2.366665 38
v -24.8 2.633332 35
v -24.8 2.633332 38
v -24.2 2.633332 35
v -24.2 2.633332 38
v -24.2 2.899999 35
v -24.2 2.899999 38
v -23.6 2.899999 35
v -23.6 2.899999 38
v -23.6 3.166665 35
v -23.6 3.166665 38
v -23 3.166665 35
v -23 3.166665 38
v -23 3.433332 35
v -23 3.433332 38
v -22.4 3.433332 35
v -22.4 3.433332 38
v -22.4 3.699999 35
v -22.4 3.699998 38
v -21.8 3.699999 35
v -21.8 3.699998 38
v -21.8 3.966665 35
v -21.8 3.966665 38
v -21.2 3.966665 35
v -21.2 3.966665 38
v -21.2 4.233332 35
v -21.2 4.233332 38
v -20.6 4.233332 35
v -20.6 4.233332 38
v -20.6 4.499999 35
v -20.6 4.499998 38
v -20 4.499999 35
v -20 4.499998 38
v -28.4 0.4999988 38
v -27.8 0.4999988 38
v -27.2 0.4999987 38
v -26.6 0.4999987 38
v -26 0.4999987 38
v -25.4 0.4999986 38
v -24.8 0.4999986 38
v -24.2 0.4999985 38
v -23.6 0.4999985 38
v -23 0.4999984 38
v -22.4 0.4999984 38
v -22.4 3.433332 38
v -21.8 0.4999983 38
v -22.4 3.699998 38
v -21.2 0.4999983 38
v -20.6 0.4999982 38
v -20 0.4999982 38
v -28.4 0.499999 35
v -27.8 0.499999 35
v -27.2 0.4999989 35
v -26.6 0.4999989 35
v -26 0.4999988 35
v -25.4 0.4999988 35
v -24.8 0.4999987 35
v -24.2 0.4999987 35
v -23.6 0.4999987 35
v -23 0.4999986 35
v -22.4 0.4999986 35
v -21.8 0.4999985 35
v -21.2 0.4999985 35
v -20.6 0.4999984 35
v -20 0.4999984 35

vt -3.576282E-07 -9.536743E-07
vt 2.999999 -9.536743E-07
vt -3.576282E-07 0.2666657
vt 2.999999 0.2666657
vt -1.430511E-06 2.999999
vt -0.6000018 -3.576279E-07
vt -0.6000013 2.999999
vt -4.529956E-07 0.5333323
vt 2.999999 0.5333323
vt -1.200002 -2.384186E-07
vt -1.200001 2.999999
vt -5.245214E-07 0.799999
vt 2.999999 0.799999
vt -1.800001 -1.192093E-07
vt -1.800001 2.999999
vt -4.053119E-07 1.066666
vt 2.999999 1.066666
vt -2.400001 0
vt -2.400001 2.999999
vt -5.722051E-07 1.333332
vt 2.999999 1.333332
vt -3.000001 1.192093E-07
vt -3 2.999999
vt -3.576282E-07 1.599999
vt 2.999999 1.599999
vt -3.600001 2.384186E-07
vt -3.6 2.999999
vt -3.337863E-07 1.866666
vt 2.999999 1.866666
vt -4.2 3.576279E-07
vt -4.2 2.999999
vt -3.099444E-07 2.133332
vt 2.999999 2.133332
vt -4.8 4.768372E-07
vt -4.8 3
vt -2.861026E-07 2.399999
vt 2.999999 2.399999
vt -5.4 5.960464E-07
vt -5.4 3
vt -2.622607E-07 2.666666
vt 2.999999 2.666666
vt -6 5.960464E-07
vt -6 3
vt -3.576282E-07 2.933332
vt 2.999999 2.933332
vt -6.599999 7.152557E-07
vt -6.599999 3
vt -3.337862E-07 3.199999
vt 2.999999 3.199999
vt -7.199999 8.34465E-07
vt -7.199999 3
vt -3.099444E-07 3.466666
vt 2.999999 3.466666
vt -7.799999 9.536743E-07
vt -7.799998 3
vt -1.525879E-06 3.733332
vt 2.999998 3.733332
vt -8.399999 1.072884E-06
vt -8.399998 3
vt -1.597405E-06 3.999999
vt 2.999997 3.999999
vt -8.999998 1.192093E-06
vt -8.999998 3
vt 0.6000018 -9.536743E-07
vt 0.6000018 0.2666657
vt 1.200001 -9.536743E-07
vt 1.200001 0.5333323
vt 0.6000018 0.5333323
vt 1.800001 -9.536743E-07
vt 1.800001 0.799999
vt 1.200001 0.799999
vt 2.400001 -9.536743E-07
vt 2.400001 1.066666
vt 1.800001 1.066666
vt 3.000001 -9.536743E-07
vt 3.000001 1.333332
vt 2.400001 1.333332
vt 3.6 -9.536743E-07
vt 3.6 1.599999
vt 3.000001 1.599999
vt 4.200001 -9.536743E-07
vt 4.200001 1.866666
vt 3.6 1.866666
vt 4.8 -9.536743E-07
vt 4.8 2.133332
vt 4.200001 2.133332
vt 5.4 -9.536743E-07
vt 5.4 2.399999
vt 4.8 2.399999
vt 6 -9.536743E-07
vt 6 2.666666
vt 5.4 2.666666
vt 6.6 -9.536743E-07
vt 6.6 2.933332
vt 6 2.933332
vt 7.199999 -9.536743E-07
vt 7.199999 3.199999
vt 6.6 3.199999
vt 7.799999 -9.536743E-07
vt 7.799999 3.466666
vt 7.199999 3.466666
vt 8.4 -9.536743E-07
vt 8.4 3.733332
vt 7.799999 3.733332
vt 8.999999 -9.536743E-07
vt 8.999999 3.999999
vt 8.4 3.999999
vt -0.6000018 0.2666657
vt -1.200002 0.5333323
vt -0.6000018 0.5333323
vt -1.800001 0.799999
vt -1.200002 0.799999
vt -2.400001 1.066666
vt -1.800001 1.066666
vt -3.000001 1.333332
vt -2.400001 1.333332
vt -3.600001 1.599999
vt -3.000001 1.599999
vt -4.200001 1.866666
vt -3.600001 1.866666
vt -4.8 2.133332
vt -4.200001 2.133332
vt -5.4 2.399999
vt -4.8 2.399999
vt -6 2.666666
vt -5.4 2.666666
vt -6.6 2.933332
vt -6 2.933332
vt -7.199999 3.199999
vt -6.6 3.199999
vt -7.799999 3.466666
vt -7.199999 3.466666
vt -8.4 3.733332
vt -7.799999 3.733332
vt -8.999998 3.999999
vt -8.4 3.999999
vt -3 3.999999

vn -1 7.391449E-08 -1.589458E-07
vn 7.391449E-08 1 5.960464E-08
vn -4.405647E-15 -5.960464E-08 1
vn 4.405647E-15 5.960464E-08 -1
vn 1 -7.391449E-08 0

usemtl ProBuilderDefault
f 114/256/81 112/257/81 110/254/81
f 118/259/81 116/260/81 114/256/81
f 122/262/81 120/263/81 118/259/81
f 126/265/81 124/266/81 122/262/81
f 130/268/81 128/269/81 126/265/81
f 134/271/81 132/272/81 130/268/81
f 138/274/81 136/275/81 134/271/81
f 142/277/81 140/278/81 138/274/81
f 146/280/81 144/281/81 142/277/81
f 178/283/81 148/284/81 146/280/81
f 154/286/81 180/287/81 178/283/81
f 158/289/81 156/290/81 154/286/81
f 162/292/81 160/293/81 158/289/81
f 166/295/81 164/296/81 162/292/81
f 109/297/82 111/299/82 113/298/82
f 113/298/82 115/301/82 117/300/82
f 117/300/82 119/303/82 121/302/82
f 121/302/82 123/305/82 125/304/82
f 125/304/82 127/307/82 129/306/82
f 129/306/82 131/309/82 133/308/82
f 133/308/82 135/311/82 137/310/82
f 137/310/82 139/313/82 141/312/82
f 141/312/82 143/315/82 145/314/82
f 145/314/82 147/317/82 149/316/82
f 149/316/82 151/319/82 153/318/82
f 153/318/82 155/321/82 157/320/82
f 157/320/82 159/323/82 161/322/82
f 161/322/82 163/325/82 165/324/82
f 106/191/79 108/193/79 107/192/79
f 107/192/79 105/190/79 106/191/79
f 108/194/80 110/196/80 109/195/80
f 109/195/80 107/190/80 108/194/80
f 110/193/79 112/198/79 111/197/79
f 111/197/79 109/192/79 110/193/79
f 112/196/80 114/200/80 113/199/80
f 113/199/80 111/195/80 112/196/80
f 114/198/79 116/202/79 115/201/79
f 115/201/79 113/197/79 114/198/79
f 116/200/80 118/204/80 117/203/80
f 117/203/80 115/199/80 116/200/80
f 118/202/79 120/206/79 119/205/79
f 119/205/79 117/201/79 118/202/79
f 120/204/80 122/208/80 121/207/80
f 121/207/80 119/203/80 120/204/80
f 122/206/79 124/210/79 123/209/79
f 123/209/79 121/205/79 122/206/79
f 124/208/80 126/212/80 125/211/80
f 125/211/80 123/207/80 124/208/80
f 126/210/79 128/214/79 127/213/79
f 127/213/79 125/209/79 126/210/79
f 128/212/80 130/216/80 129/215/80
f 129/215/80 127/211/80 128/212/80
f 130/214/79 132/218/79 131/217/79
f 131/217/79 129/213/79 130/214/79
f 132/216/80 134/220/80 133/219/80
f 133/219/80 131/215/80 132/216/80
f 134/218/79 136/222/79 135/221/79
f 135/221/79 133/217/79 134/218/79
f 136/220/80 138/224/80 137/223/80
f 137/223/80 135/219/80 136/220/80
f 138/222/79 140/226/79 139/225/79
f 139/225/79 137/221/79 138/222/79
f 140/224/80 142/228/80 141/227/80
f 141/227/80 139/223/80 140/224/80
f 142/226/79 144/230/79 143/229/79
f 143/229/79 141/225/79 142/226/79
f 144/228/80 146/232/80 145/231/80
f 145/231/80 143/227/80 144/228/80
f 146/230/79 148/234/79 147/233/79
f 147/233/79 145/229/79 146/230/79
f 148/232/80 150/236/80 149/235/80
f 149/235/80 147/231/80 148/232/80
f 150/234/79 152/238/79 151/237/79
f 151/237/79 149/233/79 150/234/79
f 152/236/80 154/240/80 153/239/80
f 153/239/80 151/235/80 152/236/80
f 154/238/79 156/242/79 155/241/79
f 155/241/79 153/237/79 154/238/79
f 156/240/80 158/244/80 157/243/80
f 157/243/80 155/239/80 156/240/80
f 158/242/79 160/246/79 159/245/79
f 159/245/79 157/241/79 158/242/79
f 160/244/80 162/248/80 161/247/80
f 161/247/80 159/243/80 160/244/80
f 162/246/79 164/250/79 163/249/79
f 163/249/79 161/245/79 162/246/79
f 164/248/80 166/252/80 165/251/80
f 165/251/80 163/247/80 164/248/80
f 167/253/81 110/254/81 108/192/81
f 108/192/81 106/190/81 167/253/81
f 168/255/81 114/256/81 110/254/81
f 110/254/81 167/253/81 168/255/81
f 169/258/81 118/259/81 114/256/81
f 114/256/81 168/255/81 169/258/81
f 170/261/81 122/262/81 118/259/81
f 118/259/81 169/258/81 170/261/81
f 171/264/81 126/265/81 122/262/81
f 122/262/81 170/261/81 171/264/81
f 172/267/81 130/268/81 126/265/81
f 126/265/81 171/264/81 172/267/81
f 173/270/81 134/271/81 130/268/81
f 130/268/81 172/267/81 173/270/81
f 174/273/81 138/274/81 134/271/81
f 134/271/81 173/270/81 174/273/81
f 175/276/81 142/277/81 138/274/81
f 138/274/81 174/273/81 175/276/81
f 176/279/81 146/280/81 142/277/81
f 142/277/81 175/276/81 176/279/81
f 177/282/81 178/283/81 146/280/81
f 146/280/81 176/279/81 177/282/81
f 179/285/81 154/286/81 178/283/81
f 178/283/81 177/282/81 179/285/81
f 181/288/81 158/289/81 154/286/81
f 154/286/81 179/285/81 181/288/81
f 182/291/81 162/292/81 158/289/81
f 158/289/81 181/288/81 182/291/81
f 183/294/81 166/295/81 162/292/81
f 162/292/81 182/291/81 183/294/81
f 107/192/82 109/297/82 184/195/82
f 184/195/82 105/190/82 107/192/82
f 109/297/82 113/298/82 185/199/82
f 185/199/82 184/195/82 109/297/82
f 113/298/82 117/300/82 186/203/82
f 186/203/82 185/199/82 113/298/82
f 117/300/82 121/302/82 187/207/82
f 187/207/82 186/203/82 117/300/82
f 121/302/82 125/304/82 188/211/82
f 188/211/82 187/207/82 121/302/82
f 125/304/82 129/306/82 189/215/82
f 189/215/82 188/211/82 125/304/82
f 129/306/82 133/308/82 190/219/82
f 190/219/82 189/215/82 129/306/82
f 133/308/82 137/310/82 191/223/82
f 191/223/82 190/219/82 133/308/82
f 137/310/82 141/312/82 192/227/82
f 192/227/82 191/223/82 137/310/82
f 141/312/82 145/314/82 193/231/82
f 193/231/82 192/227/82 141/312/82
f 145/314/82 149/316/82 194/235/82
f 194/235/82 193/231/82 145/314/82
f 149/316/82 153/318/82 195/239/82
f 195/239/82 194/235/82 149/316/82
f 153/318/82 157/320/82 196/243/82
f 196/243/82 195/239/82 153/318/82
f 157/320/82 161/322/82 197/247/82
f 197/247/82 196/243/82 157/320/82
f 161/322/82 165/324/82 198/251/82
f 198/251/82 197/247/82 161/322/82
f 198/190/83 165/249/83 166/326/83
f 166/326/83 183/211/83 198/190/83

