# ProBuilder 5.2.4
# https://unity3d.com/unity/features/worldbuilding/probuilder
# 4/28/2026 11:22:01 PM

mtllib ./NewLayout.mtl
o NewLayout

g Cube (1)
v -31 0.5 35
v -38 0.5 35
v -31 4.5 35
v -38 4.5 35
v -38 0.5 34
v -38 4.5 34
v -31 0.5 34
v -31 4.5 34

vt 0 0
vt -7 0
vt 0 4
vt -7 4
vt -1 0
vt -1 4
vt 7 0
vt 7 4
vt 1 0
vt 1 4
vt 0 -1
vt 7 -1
vt -7 -1

vn 0 0 1
vn -1 0 0
vn 0 0 -1
vn 1 0 0
vn 0 1 0
vn 0 -1 0

usemtl ProBuilderDefault
f 3/3/1 4/4/1 2/2/1 1/1/1
f 4/3/2 6/6/2 5/5/2 2/1/2
f 6/8/3 8/3/3 7/1/3 5/7/3
f 8/10/4 3/3/4 1/1/4 7/9/4
f 8/11/5 6/12/5 4/7/5 3/1/5
f 1/1/6 2/2/6 5/13/6 7/11/6

g Cube (2)
v -22 0.5 35
v -29 0.5 35
v -22 4.5 35
v -29 4.5 35
v -29 0.5 34
v -29 4.5 34
v -22 0.5 34
v -22 4.5 34

vt 7 0
vt 0 0
vt 7 4
vt 0 4
vt -1 0
vt -1 4
vt -7 0
vt -7 4
vt 1 0
vt 1 4
vt -7 -1
vt 0 -1
vt 7 -1

vn 0 0 1
vn -1 0 0
vn 0 0 -1
vn 1 0 0
vn 0 1 0
vn 0 -1 0

usemtl ProBuilderDefault
f 11/16/7 12/17/7 10/15/7 9/14/7
f 12/17/8 14/19/8 13/18/8 10/15/8
f 14/17/9 16/21/9 15/20/9 13/15/9
f 16/23/10 11/17/10 9/15/10 15/22/10
f 16/24/11 14/25/11 12/15/11 11/20/11
f 9/14/12 10/15/12 13/25/12 15/26/12

g Cube (3)
v -29 3.5 35
v -31 3.5 35
v -29 4.5 35
v -31 4.5 35
v -31 3.5 34
v -31 4.5 34
v -29 3.5 34
v -29 4.5 34

vt 0 0
vt -2 0
vt 0 1
vt -2 1
vt -1 0
vt -1 1
vt 2 0
vt 2 1
vt 1 0
vt 1 1
vt 0 -1
vt 2 -1
vt -2 -1

vn 0 0 1
vn -1 0 0
vn 0 0 -1
vn 1 0 0
vn 0 1 0
vn 0 -1 0

usemtl ProBuilderDefault
f 19/29/13 20/30/13 18/28/13 17/27/13
f 20/29/14 22/32/14 21/31/14 18/27/14
f 22/34/15 24/29/15 23/27/15 21/33/15
f 24/36/16 19/29/16 17/27/16 23/35/16
f 24/37/17 22/38/17 20/33/17 19/27/17
f 17/27/18 18/28/18 21/39/18 23/37/18

g Cube (4)
v -22 0.5 35
v -23 0.5 35
v -22 4.5 35
v -23 4.5 35
v -23 0.5 18
v -23 4.5 18
v -22 0.5 18
v -22 4.5 18

vt 0 0
vt -1 0
vt 0 4
vt -1 4
vt 17 0
vt 17 4
vt 1 0
vt 1 4
vt -17 0
vt -17 4
vt 0 17
vt 1 17
vt -1 17

vn 0 0 1
vn -1 0 0
vn 0 0 -1
vn 1 0 0
vn 0 1 0
vn 0 -1 0

usemtl ProBuilderDefault
f 27/42/19 28/43/19 26/41/19 25/40/19
f 28/45/20 30/42/20 29/40/20 26/44/20
f 30/47/21 32/42/21 31/40/21 29/46/21
f 32/42/22 27/49/22 25/48/22 31/40/22
f 32/40/23 30/46/23 28/51/23 27/50/23
f 25/50/24 26/52/24 29/41/24 31/40/24

g Cube (5)
v -22 0.5 19
v -38 0.5 19
v -22 4.5 19
v -38 4.5 19
v -38 0.5 18
v -38 4.5 18
v -22 0.5 18
v -22 4.5 18

vt 0 0
vt -16 0
vt 0 4
vt -16 4
vt 1 0
vt 1 4
vt 16 0
vt 16 4
vt -1 0
vt -1 4
vt 0 1
vt 16 1
vt -16 1

vn 0 0 1
vn -1 0 0
vn 0 0 -1
vn 1 0 0
vn 0 1 0
vn 0 -1 0

usemtl ProBuilderDefault
f 35/55/25 36/56/25 34/54/25 33/53/25
f 36/58/26 38/55/26 37/53/26 34/57/26
f 38/60/27 40/55/27 39/53/27 37/59/27
f 40/55/28 35/62/28 33/61/28 39/53/28
f 40/53/29 38/59/29 36/64/29 35/63/29
f 33/63/30 34/65/30 37/54/30 39/53/30

g Cube (6)
v -37 0.5 35
v -38 0.5 35
v -37 4.5 35
v -38 4.5 35
v -38 0.5 18
v -38 4.5 18
v -37 0.5 18
v -37 4.5 18

vt 0 0
vt -1 0
vt 0 4
vt -1 4
vt -17 0
vt -17 4
vt 1 0
vt 1 4
vt 17 0
vt 17 4
vt 0 -17
vt 1 -17
vt -1 -17

vn 0 0 1
vn -1 0 0
vn 0 0 -1
vn 1 0 0
vn 0 1 0
vn 0 -1 0

usemtl ProBuilderDefault
f 43/68/31 44/69/31 42/67/31 41/66/31
f 44/68/32 46/71/32 45/70/32 42/66/32
f 46/73/33 48/68/33 47/66/33 45/72/33
f 48/75/34 43/68/34 41/66/34 47/74/34
f 48/76/35 46/77/35 44/72/35 43/66/35
f 41/66/36 42/67/36 45/78/36 47/76/36

g Cube (7)
v -21.5 4.5 34.5
v -38 4.5 34.5
v -21.5 5.5 34.5
v -38 5.5 34.5
v -38 4.5 18.5
v -38 5.5 18.5
v -21.5 4.5 18.5
v -21.5 5.5 18.5

vt 16.5 0
vt 0 0
vt 16.5 1
vt 0 1
vt 16 0
vt 16 1
vt -16.5 0
vt -16.5 1
vt -16 0
vt -16 1
vt -16.5 16
vt 0 16
vt 16.5 16

vn 0 0 1
vn -1 0 0
vn 0 0 -1
vn 1 0 0
vn 0 1 0
vn 0 -1 0

usemtl ProBuilderDefault
f 51/81/37 52/82/37 50/80/37 49/79/37
f 52/84/38 54/82/38 53/80/38 50/83/38
f 54/82/39 56/86/39 55/85/39 53/80/39
f 56/82/40 51/88/40 49/87/40 55/80/40
f 56/85/41 54/80/41 52/90/41 51/89/41
f 49/91/42 50/90/42 53/80/42 55/79/42

g Cube (8)
v -15 4.5 35
v -39 4.5 35
v -15 9.5 35
v -39 9.5 35
v -39 4.5 34
v -39 9.5 34
v -15 4.5 34
v -15 9.5 34

vt 0 0
vt -24 0
vt 0 5
vt -24 5
vt -1 0
vt -1 5
vt 24 0
vt 24 5
vt 1 0
vt 1 5
vt 0 -1
vt 24 -1
vt -24 -1

vn 0 0 1
vn -1 0 0
vn 0 0 -1
vn 1 0 0
vn 0 1 0
vn 0 -1 0

usemtl ProBuilderDefault
f 59/94/43 60/95/43 58/93/43 57/92/43
f 60/94/44 62/97/44 61/96/44 58/92/44
f 62/99/45 64/94/45 63/92/45 61/98/45
f 64/101/46 59/94/46 57/92/46 63/100/46
f 64/102/47 62/103/47 60/98/47 59/92/47
f 57/92/48 58/93/48 61/104/48 63/102/48

g Cube (9)
v -14 4.5 38
v -15 4.5 38
v -14 8.5 38
v -15 8.5 38
v -15 4.5 35
v -15 8.5 35
v -14 4.5 35
v -14 8.5 35

vt 1 0
vt 0 0
vt 1 4
vt 0 4
vt -3 0
vt -3 4
vt -1 0
vt -1 4
vt 3 0
vt 3 4
vt -1 -3
vt 0 -3
vt 1 -3

vn 0 0 1
vn -1 0 0
vn 0 0 -1
vn 1 0 0
vn 0 1 0
vn 0 -1 0

usemtl ProBuilderDefault
f 67/107/49 68/108/49 66/106/49 65/105/49
f 68/108/50 70/110/50 69/109/50 66/106/50
f 70/108/51 72/112/51 71/111/51 69/106/51
f 72/114/52 67/108/52 65/106/52 71/113/52
f 72/115/53 70/116/53 68/106/53 67/111/53
f 65/105/54 66/106/54 69/116/54 71/117/54

g Cube (10)
v -14 8.5 38
v -39 8.5 38
v -14 9.5 38
v -39 9.5 38
v -39 8.5 35
v -39 9.5 35
v -14 8.5 35
v -14 9.5 35

vt 0 0
vt -25 0
vt 0 1
vt -25 1
vt 3 0
vt 3 1
vt 25 0
vt 25 1
vt -3 0
vt -3 1
vt 0 3
vt 25 3
vt -25 3

vn 0 0 1
vn -1 0 0
vn 0 0 -1
vn 1 0 0
vn 0 1 0
vn 0 -1 0

usemtl ProBuilderDefault
f 75/120/55 76/121/55 74/119/55 73/118/55
f 76/123/56 78/120/56 77/118/56 74/122/56
f 78/125/57 80/120/57 79/118/57 77/124/57
f 80/120/58 75/127/58 73/126/58 79/118/58
f 80/118/59 78/124/59 76/129/59 75/128/59
f 73/128/60 74/130/60 77/119/60 79/118/60

g Cube (11)
v -23 -0.4999 35
v -37 -0.4999 35
v -23 0.5001 35
v -37 0.5001 35
v -37 -0.4999 19
v -37 0.5001 19
v -23 -0.4999 19
v -23 0.5001 19

vt 14 -0.9999
vt 0 -0.9999
vt 14 9.998679E-05
vt 0 9.998679E-05
vt 16 -0.9999
vt 16 9.998679E-05
vt -14 -0.9999
vt -14 9.998679E-05
vt -16 -0.9999
vt -16 9.998679E-05
vt -14 16
vt 0 16
vt 14 16

vn 0 0 1
vn -1 0 0
vn 0 0 -1
vn 1 0 0
vn 0 1 0
vn 0 -1 0

usemtl ProBuilderDefault
f 83/133/61 84/134/61 82/132/61 81/131/61
f 84/136/62 86/134/62 85/132/62 82/135/62
f 86/134/63 88/138/63 87/137/63 85/132/63
f 88/134/64 83/140/64 81/139/64 87/132/64
f 88/138/65 86/134/65 84/142/65 83/141/65
f 81/143/66 82/142/66 85/134/66 87/133/66

g Cube (12)
v -15 3.5 38
v -20 3.5 38
v -15 4.5 38
v -20 4.5 38
v -20 3.500001 35
v -20 4.500001 35
v -15 3.500001 35
v -15 4.500001 35

vt 5 0
vt 0 0
vt 5 1
vt 0 1
vt -3 0
vt -3 1
vt -5 0
vt -5 1
vt 3 0
vt 3 1
vt -5 -3
vt 0 -3
vt 5 -3

vn 0 -3.178914E-07 1
vn -1 0 0
vn 0 3.178914E-07 -1
vn 1 0 0
vn 0 1 3.178914E-07
vn 0 -1 -3.178914E-07

usemtl ProBuilderDefault
f 91/146/67 92/147/67 90/145/67 89/144/67
f 92/147/68 94/149/68 93/148/68 90/145/68
f 94/147/69 96/151/69 95/150/69 93/145/69
f 96/153/70 91/147/70 89/145/70 95/152/70
f 96/154/71 94/155/71 92/145/71 91/150/71
f 89/144/72 90/145/72 93/155/72 95/156/72

g Stairs
v -29 0.4999998 38
v -29 0.5000005 35
v -29 0.7666665 38
v -29 0.7666671 35
v -28.4 0.7666664 38
v -28.4 0.7666671 35
v -28.4 1.033333 38
v -28.4 1.033334 35
v -27.8 1.033333 38
v -27.8 1.033334 35
v -27.8 1.3 38
v -27.8 1.3 35
v -27.2 1.3 38
v -27.2 1.3 35
v -27.2 1.566666 38
v -27.2 1.566667 35
v -26.6 1.566666 38
v -26.6 1.566667 35
v -26.6 1.833333 38
v -26.6 1.833334 35
v -26 1.833333 38
v -26 1.833334 35
v -26 2.1 38
v -26 2.1 35
v -25.4 2.1 38
v -25.4 2.1 35
v -25.4 2.366666 38
v -25.4 2.366667 35
v -24.8 2.366666 38
v -24.8 2.366667 35
v -24.8 2.633333 38
v -24.8 2.633334 35
v -24.2 2.633333 38
v -24.2 2.633334 35
v -24.2 2.9 38
v -24.2 2.9 35
v -23.6 2.9 38
v -23.6 2.9 35
v -23.6 3.166666 38
v -23.6 3.166667 35
v -23 3.166666 38
v -23 3.166667 35
v -23 3.433333 38
v -23 3.433334 35
v -22.4 3.433333 38
v -22.4 3.433334 35
v -22.4 3.7 38
v -22.4 3.7 35
v -21.8 3.7 38
v -21.8 3.7 35
v -21.8 3.966666 38
v -21.8 3.966667 35
v -21.2 3.966666 38
v -21.2 3.966667 35
v -21.2 4.233333 38
v -21.2 4.233334 35
v -20.6 4.233333 38
v -20.6 4.233334 35
v -20.6 4.5 38
v -20.6 4.5 35
v -20 4.5 38
v -20 4.5 35
v -28.4 0.5000005 35
v -27.8 0.5000005 35
v -27.2 0.5000004 35
v -26.6 0.5000004 35
v -26 0.5000004 35
v -25.4 0.5000004 35
v -24.8 0.5000004 35
v -24.2 0.5000004 35
v -23.6 0.5000003 35
v -23 0.5000003 35
v -22.4 0.5000003 35
v -21.8 0.5000002 35
v -21.2 0.5000002 35
v -20.6 0.5000002 35
v -20 0.5000002 35
v -28.4 0.4999998 38
v -27.8 0.4999998 38
v -27.2 0.4999997 38
v -26.6 0.4999997 38
v -26 0.4999997 38
v -25.4 0.4999997 38
v -24.8 0.4999997 38
v -24.2 0.4999996 38
v -23.6 0.4999996 38
v -23 0.4999996 38
v -22.4 0.4999996 38
v -21.8 0.4999996 38
v -21.2 0.4999996 38
v -20.6 0.4999995 38
v -20 0.4999995 38

vt 1.5 -2
vt -1.499999 -2
vt 1.5 -1.733334
vt -1.499999 -1.733334
vt 4.499998 1.5
vt 4.499999 -1.499999
vt 3.899998 1.5
vt 3.899999 -1.499999
vt 1.5 -1.466667
vt -1.499999 -1.466667
vt 3.299998 1.5
vt 3.299999 -1.499999
vt 1.499999 -1.2
vt -1.5 -1.2
vt 2.699999 1.5
vt 2.699999 -1.499999
vt 1.5 -0.9333335
vt -1.5 -0.9333335
vt 2.099999 1.5
vt 2.099999 -1.499999
vt 1.499999 -0.6666669
vt -1.5 -0.6666669
vt 1.499999 1.5
vt 1.5 -1.499999
vt 1.5 -0.4000002
vt -1.5 -0.4000002
vt 0.8999993 1.5
vt 0.8999999 -1.499999
vt 1.5 -0.1333336
vt -1.499999 -0.1333336
vt 0.2999996 1.5
vt 0.3000001 -1.499999
vt 1.5 0.1333332
vt -1.499999 0.1333332
vt -0.3000004 1.499999
vt -0.2999999 -1.5
vt 1.499999 0.3999999
vt -1.5 0.3999999
vt -0.9000002 1.499999
vt -0.8999996 -1.5
vt 1.499999 0.6666665
vt -1.5 0.6666665
vt -1.5 1.499999
vt -1.499999 -1.5
vt 1.5 0.9333332
vt -1.5 0.9333332
vt -2.1 1.499999
vt -2.099999 -1.5
vt 1.5 1.2
vt -1.499999 1.2
vt -2.699999 1.499999
vt -2.699999 -1.5
vt 1.5 1.466666
vt -1.5 1.466666
vt -3.299999 1.499999
vt -3.299999 -1.5
vt 1.5 1.733333
vt -1.499999 1.733333
vt -3.899999 1.499999
vt -3.899998 -1.5
vt 1.499999 2
vt -1.5 2
vt -4.499999 1.499999
vt -4.499998 -1.5
vt 4.499998 -2
vt 3.899998 -2
vt 4.499998 -1.733334
vt 3.899998 -1.733334
vt 3.299999 -2
vt 3.299999 -1.466667
vt 3.899998 -1.466667
vt 2.699999 -2
vt 2.699999 -1.2
vt 3.299999 -1.2
vt 2.099999 -2
vt 2.099999 -0.9333335
vt 2.699999 -0.9333335
vt 2.099999 -0.6666669
vt 0.8999997 -2
vt 0.8999997 -0.4000002
vt 0.2999997 -2
vt 0.2999997 -0.1333336
vt 0.8999997 -0.1333336
vt -0.3000001 -2
vt -0.3000001 0.1333332
vt 0.2999997 0.1333332
vt -0.8999999 -2
vt -0.8999999 0.3999999
vt -0.3000001 0.3999999
vt -0.8999999 0.6666665
vt -2.099999 -2
vt -2.099999 0.9333332
vt -2.699999 -2
vt -2.699999 1.2
vt -2.099999 1.2
vt -3.299999 -2
vt -3.299999 1.466666
vt -2.699999 1.466666
vt -3.899999 -2
vt -3.899999 1.733333
vt -3.299999 1.733333
vt -4.499999 -2
vt -4.499999 2
vt -3.899999 2
vt -4.499999 -1.733334
vt -3.899998 -1.733334
vt -3.299999 -1.466667
vt -3.899998 -1.466667
vt -2.699999 -1.2
vt -3.299999 -1.2
vt -2.099999 -0.9333335
vt -2.699999 -0.9333335
vt -2.099999 -0.6666669
vt -0.8999997 -0.4000002
vt -0.2999997 -2
vt -0.2999997 -0.1333336
vt -0.8999997 -0.1333336
vt 0.3000001 -2
vt 0.3000001 0.1333332
vt -0.2999997 0.1333332
vt 0.9 0.3999999
vt 0.3000001 0.3999999
vt 0.9 0.6666665
vt 2.1 0.9333332
vt 2.699999 1.2
vt 2.1 1.2
vt 3.299999 1.466666
vt 2.699999 1.466666
vt 3.899999 1.733333
vt 3.299999 1.733333
vt 4.499998 2
vt 3.899999 2

vn -1 3.311366E-08 1.589458E-07
vn 3.311369E-08 1 2.299036E-07
vn -1.986822E-07 2.299036E-07 -1
vn -7.612958E-15 -2.299036E-07 1
vn 1 -3.311366E-08 -1.589458E-07

usemtl ProBuilderDefault
f 102/224/75 104/227/75 106/226/75
f 106/226/75 108/230/75 110/229/75
f 110/229/75 112/233/75 114/232/75
f 114/232/75 116/234/75 118/177/75
f 118/177/75 120/181/75 122/236/75
f 122/236/75 124/239/75 126/238/75
f 126/238/75 128/242/75 130/241/75
f 130/241/75 132/245/75 134/244/75
f 134/244/75 136/246/75 138/198/75
f 138/198/75 140/202/75 142/248/75
f 142/248/75 144/251/75 146/250/75
f 146/250/75 148/254/75 150/253/75
f 150/253/75 152/257/75 154/256/75
f 154/256/75 156/260/75 158/259/75
f 105/263/76 103/264/76 101/262/76
f 109/265/76 107/266/76 105/263/76
f 113/267/76 111/268/76 109/265/76
f 117/178/76 115/269/76 113/267/76
f 121/270/76 119/182/76 117/178/76
f 125/272/76 123/273/76 121/270/76
f 129/275/76 127/276/76 125/272/76
f 133/277/76 131/278/76 129/275/76
f 137/197/76 135/279/76 133/277/76
f 141/280/76 139/201/76 137/197/76
f 145/281/76 143/282/76 141/280/76
f 149/283/76 147/284/76 145/281/76
f 153/285/76 151/286/76 149/283/76
f 157/287/76 155/288/76 153/285/76
f 100/160/73 98/158/73 97/157/73
f 97/157/73 99/159/73 100/160/73
f 102/164/74 100/162/74 99/161/74
f 99/161/74 101/163/74 102/164/74
f 104/166/73 102/160/73 101/159/73
f 101/159/73 103/165/73 104/166/73
f 106/168/74 104/164/74 103/163/74
f 103/163/74 105/167/74 106/168/74
f 108/170/73 106/166/73 105/165/73
f 105/165/73 107/169/73 108/170/73
f 110/172/74 108/168/74 107/167/74
f 107/167/74 109/171/74 110/172/74
f 112/174/73 110/170/73 109/169/73
f 109/169/73 111/173/73 112/174/73
f 114/176/74 112/172/74 111/171/74
f 111/171/74 113/175/74 114/176/74
f 116/178/73 114/174/73 113/173/73
f 113/173/73 115/177/73 116/178/73
f 118/180/74 116/176/74 115/175/74
f 115/175/74 117/179/74 118/180/74
f 120/182/73 118/178/73 117/177/73
f 117/177/73 119/181/73 120/182/73
f 122/184/74 120/180/74 119/179/74
f 119/179/74 121/183/74 122/184/74
f 124/186/73 122/182/73 121/181/73
f 121/181/73 123/185/73 124/186/73
f 126/188/74 124/184/74 123/183/74
f 123/183/74 125/187/74 126/188/74
f 128/190/73 126/186/73 125/185/73
f 125/185/73 127/189/73 128/190/73
f 130/192/74 128/188/74 127/187/74
f 127/187/74 129/191/74 130/192/74
f 132/194/73 130/190/73 129/189/73
f 129/189/73 131/193/73 132/194/73
f 134/196/74 132/192/74 131/191/74
f 131/191/74 133/195/74 134/196/74
f 136/198/73 134/194/73 133/193/73
f 133/193/73 135/197/73 136/198/73
f 138/200/74 136/196/74 135/195/74
f 135/195/74 137/199/74 138/200/74
f 140/202/73 138/198/73 137/197/73
f 137/197/73 139/201/73 140/202/73
f 142/204/74 140/200/74 139/199/74
f 139/199/74 141/203/74 142/204/74
f 144/206/73 142/202/73 141/201/73
f 141/201/73 143/205/73 144/206/73
f 146/208/74 144/204/74 143/203/74
f 143/203/74 145/207/74 146/208/74
f 148/210/73 146/206/73 145/205/73
f 145/205/73 147/209/73 148/210/73
f 150/212/74 148/208/74 147/207/74
f 147/207/74 149/211/74 150/212/74
f 152/214/73 150/210/73 149/209/73
f 149/209/73 151/213/73 152/214/73
f 154/216/74 152/212/74 151/211/74
f 151/211/74 153/215/74 154/216/74
f 156/218/73 154/214/73 153/213/73
f 153/213/73 155/217/73 156/218/73
f 158/220/74 156/216/74 155/215/74
f 155/215/74 157/219/74 158/220/74
f 102/224/75 159/222/75 98/221/75
f 98/221/75 100/223/75 102/224/75
f 106/226/75 160/225/75 159/222/75
f 159/222/75 102/224/75 106/226/75
f 110/229/75 161/228/75 160/225/75
f 160/225/75 106/226/75 110/229/75
f 114/232/75 162/231/75 161/228/75
f 161/228/75 110/229/75 114/232/75
f 118/177/75 163/157/75 162/231/75
f 162/231/75 114/232/75 118/177/75
f 122/236/75 164/235/75 163/157/75
f 163/157/75 118/177/75 122/236/75
f 126/238/75 165/237/75 164/235/75
f 164/235/75 122/236/75 126/238/75
f 130/241/75 166/240/75 165/237/75
f 165/237/75 126/238/75 130/241/75
f 134/244/75 167/243/75 166/240/75
f 166/240/75 130/241/75 134/244/75
f 138/198/75 168/158/75 167/243/75
f 167/243/75 134/244/75 138/198/75
f 142/248/75 169/247/75 168/158/75
f 168/158/75 138/198/75 142/248/75
f 146/250/75 170/249/75 169/247/75
f 169/247/75 142/248/75 146/250/75
f 150/253/75 171/252/75 170/249/75
f 170/249/75 146/250/75 150/253/75
f 154/256/75 172/255/75 171/252/75
f 171/252/75 150/253/75 154/256/75
f 158/259/75 173/258/75 172/255/75
f 172/255/75 154/256/75 158/259/75
f 99/261/76 97/258/76 174/255/76
f 174/255/76 101/262/76 99/261/76
f 101/262/76 174/255/76 175/252/76
f 175/252/76 105/263/76 101/262/76
f 105/263/76 175/252/76 176/249/76
f 176/249/76 109/265/76 105/263/76
f 109/265/76 176/249/76 177/247/76
f 177/247/76 113/267/76 109/265/76
f 113/267/76 177/247/76 178/158/76
f 178/158/76 117/178/76 113/267/76
f 117/178/76 178/158/76 179/243/76
f 179/243/76 121/270/76 117/178/76
f 121/270/76 179/243/76 180/271/76
f 180/271/76 125/272/76 121/270/76
f 125/272/76 180/271/76 181/274/76
f 181/274/76 129/275/76 125/272/76
f 129/275/76 181/274/76 182/235/76
f 182/235/76 133/277/76 129/275/76
f 133/277/76 182/235/76 183/157/76
f 183/157/76 137/197/76 133/277/76
f 137/197/76 183/157/76 184/231/76
f 184/231/76 141/280/76 137/197/76
f 141/280/76 184/231/76 185/228/76
f 185/228/76 145/281/76 141/280/76
f 145/281/76 185/228/76 186/225/76
f 186/225/76 149/283/76 145/281/76
f 149/283/76 186/225/76 187/222/76
f 187/222/76 153/285/76 149/283/76
f 153/285/76 187/222/76 188/221/76
f 188/221/76 157/287/76 153/285/76
f 157/218/77 188/158/77 173/157/77
f 173/157/77 158/217/77 157/218/77

g Cube (16)
v -22 0.499999 35
v -22 4.5 35
v -15 0.4999982 35
v -15 4.499999 35
v -22 4.5 34
v -15 4.499999 34
v -22 0.499999 34
v -15 0.4999982 34

vt 4.000001 -2.384186E-07
vt 7.152557E-07 -2.384186E-07
vt 4.000001 7.000002
vt 7.152557E-07 7.000002
vt -1 -2.384186E-07
vt -1 7.000002
vt -4.000001 -2.384186E-07
vt -4.000001 7.000002
vt 1 -2.384186E-07
vt 1 7.000002
vt -4.000001 -1
vt -7.152557E-07 -1
vt 4.000001 -1

vn 0 0 1
vn 1.192093E-07 1 0
vn 0 0 -1
vn -1.192093E-07 -1 0
vn 1 -1.192093E-07 0
vn -1 1.192093E-07 0

usemtl ProBuilderDefault
f 191/291/78 192/292/78 190/290/78 189/289/78
f 192/292/79 194/294/79 193/293/79 190/290/79
f 194/292/80 196/296/80 195/295/80 193/290/80
f 196/298/81 191/292/81 189/290/81 195/297/81
f 196/299/82 194/300/82 192/290/82 191/295/82
f 189/289/83 190/290/83 193/300/83 195/301/83

g Cube (13)
v -39 -0.5 38
v -39 9.5 38
v -39 -0.5 39
v -39 9.5 39
v -14 9.5 38
v -14 9.5 39
v -14 -0.5 38
v -14 -0.5 39

vt 10 0
vt 0 0
vt 10 1
vt 0 1
vt 25 0
vt 25 1
vt -10 0
vt -10 1
vt -25 0
vt -25 1
vt -10 25
vt 0 25
vt 10 25

vn -1 0 0
vn 0 1 0
vn 1 0 0
vn 0 -1 0
vn 0 0 1
vn 0 0 -1

usemtl ProBuilderDefault
f 199/304/84 200/305/84 198/303/84 197/302/84
f 200/307/85 202/305/85 201/303/85 198/306/85
f 202/305/86 204/309/86 203/308/86 201/303/86
f 204/305/87 199/311/87 197/310/87 203/303/87
f 204/308/88 202/303/88 200/313/88 199/312/88
f 197/314/89 198/313/89 201/303/89 203/302/89

g Cube (14)
v -38 -0.5 35
v -38 8.5 35
v -38 -0.5 38
v -38 8.5 38
v -32 8.5 35
v -32 8.5 38
v -32 -0.5 35
v -32 -0.5 38

vt 9 0
vt 0 0
vt 9 3
vt 0 3
vt 6 0
vt 6 3
vt -9 0
vt -9 3
vt -6 0
vt -6 3
vt -9 6
vt 0 6
vt 9 6

vn -1 0 0
vn 0 1 0
vn 1 0 0
vn 0 -1 0
vn 0 0 1
vn 0 0 -1

usemtl ProBuilderDefault
f 207/317/90 208/318/90 206/316/90 205/315/90
f 208/320/91 210/318/91 209/316/91 206/319/91
f 210/318/92 212/322/92 211/321/92 209/316/92
f 212/318/93 207/324/93 205/323/93 211/316/93
f 212/321/94 210/316/94 208/326/94 207/325/94
f 205/327/95 206/326/95 209/316/95 211/315/95

g Cube (15)
v -32 -0.4999003 38
v -32 0.5001 38
v -20 -0.4999017 38
v -20 0.5000985 38
v -32 0.5001 35
v -20 0.5000985 35
v -32 -0.4999003 35
v -20 -0.4999017 35

vt 0.9999002 -9.536743E-07
vt -9.986758E-05 -9.536743E-07
vt 0.9999002 12
vt -9.986758E-05 12
vt -3 -9.536743E-07
vt -3 12
vt -0.9999002 -9.536743E-07
vt -0.9999002 12
vt 3 -9.536743E-07
vt 3 12
vt -0.9999002 -3
vt 9.986758E-05 -3
vt 0.9999002 -3

vn 0 0 1
vn 1.192093E-07 1 0
vn 0 0 -1
vn -1.192093E-07 -1 0
vn 1 -1.192093E-07 0
vn -1 1.192093E-07 0

usemtl ProBuilderDefault
f 215/330/96 216/331/96 214/329/96 213/328/96
f 216/331/97 218/333/97 217/332/97 214/329/97
f 218/331/98 220/335/98 219/334/98 217/329/98
f 220/337/99 215/331/99 213/329/99 219/336/99
f 220/338/100 218/339/100 216/329/100 215/334/100
f 213/328/101 214/329/101 217/339/101 219/340/101

